HIERARCHY
ROOT Hips
{
	OFFSET 0.000000 83.214638 0.000000
	CHANNELS 6 Xposition Yposition Zposition Xrotation Yrotation Zrotation
	JOINT Pelvis
	{
		OFFSET 0.000000 0.000000 0.000000
		CHANNELS 3 Xrotation Yrotation Zrotation
		JOINT LeftUpLeg
		{
			OFFSET 8.479700 -4.795502 -0.379100
			CHANNELS 3 Xrotation Yrotation Zrotation
			JOINT LeftLeg
			{
				OFFSET 0.024144 -32.555107 0.112900
				CHANNELS 3 Xrotation Yrotation Zrotation
				JOINT LeftFoot
				{
					OFFSET -0.024144 -32.638630 -3.012600
					CHANNELS 3 Xrotation Yrotation Zrotation
					JOINT LeftToeBase
					{
						OFFSET 0.970200 -13.225400 11.864200
						CHANNELS 3 Xrotation Yrotation Zrotation
						End Site
						{
							OFFSET 0.000000 12.319262 0.000000
						}
					}
					JOINT LFootTongue
					{
						OFFSET 1.142400 -1.059800 6.665200
						CHANNELS 3 Xrotation Yrotation Zrotation
						End Site
						{
							OFFSET 0.000000 12.319262 0.000000
						}
					}
				}
				JOINT LeftPantLeg
				{
					OFFSET 0.918482 -16.533964 -2.284700
					CHANNELS 3 Xrotation Yrotation Zrotation
					End Site
					{
						OFFSET 0.350399 24.744368 0.000000
					}
				}
			}
		}
		JOINT RightUpLeg
		{
			OFFSET -8.479700 -4.795502 -0.379100
			CHANNELS 3 Xrotation Yrotation Zrotation
			JOINT RightLeg
			{
				OFFSET -0.023144 -32.555092 0.112900
				CHANNELS 3 Xrotation Yrotation Zrotation
				JOINT RightFoot
				{
					OFFSET 0.023144 -32.638641 -3.012700
					CHANNELS 3 Xrotation Yrotation Zrotation
					JOINT RightToeBase
					{
						OFFSET -0.970200 -13.225400 11.864200
						CHANNELS 3 Xrotation Yrotation Zrotation
						End Site
						{
							OFFSET 0.000000 12.319244 0.000000
						}
					}
					JOINT RFootTongue
					{
						OFFSET -1.142200 -1.059800 6.665200
						CHANNELS 3 Xrotation Yrotation Zrotation
						End Site
						{
							OFFSET 0.000000 12.319243 0.000000
						}
					}
				}
				JOINT RightPantLeg
				{
					OFFSET -0.919482 -16.533978 -2.284800
					CHANNELS 3 Xrotation Yrotation Zrotation
					End Site
					{
						OFFSET -0.350400 24.744419 0.000000
					}
				}
			}
		}
	}
	JOINT Spine
	{
		OFFSET 0.000000 7.722000 1.166200
		CHANNELS 3 Xrotation Yrotation Zrotation
		JOINT Spine1
		{
			OFFSET 0.000000 12.024101 0.248800
			CHANNELS 3 Xrotation Yrotation Zrotation
			JOINT Spine2
			{
				OFFSET 0.000000 11.502998 -0.491200
				CHANNELS 3 Xrotation Yrotation Zrotation
				JOINT Neck
				{
					OFFSET 0.000000 18.430702 -3.123100
					CHANNELS 3 Xrotation Yrotation Zrotation
					JOINT Head
					{
						OFFSET 0.000000 9.051102 1.034000
						CHANNELS 3 Xrotation Yrotation Zrotation
						JOINT HairB
						{
							OFFSET 0.208400 24.786102 24.822300
							CHANNELS 3 Xrotation Yrotation Zrotation
							End Site
							{
								OFFSET 0.000000 32.263779 0.000000
							}
						}
						JOINT HairA
						{
							OFFSET -7.081100 24.428299 23.196600
							CHANNELS 3 Xrotation Yrotation Zrotation
							End Site
							{
								OFFSET 0.000000 32.263779 0.000000
							}
						}
						JOINT Hat
						{
							OFFSET 16.728800 15.048294 -15.439601
							CHANNELS 3 Xrotation Yrotation Zrotation
							End Site
							{
								OFFSET 0.000000 32.263779 0.000000
							}
						}
					}
				}
				JOINT LeftShoulder
				{
					OFFSET 6.197800 13.665199 -4.064700
					CHANNELS 3 Xrotation Yrotation Zrotation
					JOINT LeftArm
					{
						OFFSET 7.778100 -0.187103 -1.709300
						CHANNELS 3 Xrotation Yrotation Zrotation
						JOINT LeftForeArm
						{
							OFFSET 22.049376 0.000000 0.000000
							CHANNELS 3 Xrotation Yrotation Zrotation
							JOINT LeftHand
							{
								OFFSET 23.009392 0.000000 0.000000
								CHANNELS 3 Xrotation Yrotation Zrotation
								JOINT LeftHandThumb1
								{
									OFFSET 3.507191 -2.063065 3.133727
									CHANNELS 3 Xrotation Yrotation Zrotation
									JOINT LeftHandThumb2
									{
										OFFSET 3.101337 -1.790558 1.790558
										CHANNELS 3 Xrotation Yrotation Zrotation
										JOINT LeftHandThumb3
										{
											OFFSET 3.058640 -1.765907 1.765906
											CHANNELS 3 Xrotation Yrotation Zrotation
											End Site
											{
												OFFSET -0.415260 3.926476 -0.049563
											}
										}
									}
								}
								JOINT LeftHandIndex1
								{
									OFFSET 11.334419 -0.901459 3.706815
									CHANNELS 3 Xrotation Yrotation Zrotation
									JOINT LeftHandIndex2
									{
										OFFSET 3.283112 0.000000 0.000000
										CHANNELS 3 Xrotation Yrotation Zrotation
										JOINT LeftHandIndex3
										{
											OFFSET 3.323853 0.000000 0.000000
											CHANNELS 3 Xrotation Yrotation Zrotation
											End Site
											{
												OFFSET -1.135597 3.097809 0.402452
											}
										}
									}
								}
								JOINT LeftHandMiddle1
								{
									OFFSET 11.335861 0.000000 0.000000
									CHANNELS 3 Xrotation Yrotation Zrotation
									JOINT LeftHandMiddle2
									{
										OFFSET 3.410492 0.000000 0.000000
										CHANNELS 3 Xrotation Yrotation Zrotation
										JOINT LeftHandMiddle3
										{
											OFFSET 3.312172 0.000000 0.000000
											CHANNELS 3 Xrotation Yrotation Zrotation
											End Site
											{
												OFFSET -1.150200 3.080154 0.400270
											}
										}
									}
								}
								JOINT LeftHandRing1
								{
									OFFSET 11.514786 -0.013176 -3.003090
									CHANNELS 3 Xrotation Yrotation Zrotation
									JOINT LeftHandRing2
									{
										OFFSET 3.053307 0.000000 0.000000
										CHANNELS 3 Xrotation Yrotation Zrotation
										JOINT LeftHandRing3
										{
											OFFSET 3.295807 0.000000 0.000000
											CHANNELS 3 Xrotation Yrotation Zrotation
											End Site
											{
												OFFSET -1.281006 3.013344 0.375733
											}
										}
									}
								}
								JOINT LeftHandPinky1
								{
									OFFSET 10.518692 -0.960396 -5.730441
									CHANNELS 3 Xrotation Yrotation Zrotation
									JOINT LeftHandPinky2
									{
										OFFSET 2.861649 0.000000 0.000000
										CHANNELS 3 Xrotation Yrotation Zrotation
										JOINT LeftHandPinky3
										{
											OFFSET 2.863380 0.000000 0.000000
											CHANNELS 3 Xrotation Yrotation Zrotation
											End Site
											{
												OFFSET -0.843597 2.711159 0.369971
											}
										}
									}
								}
							}
							JOINT LSleeve
							{
								OFFSET 6.676277 -0.344902 -1.011730
								CHANNELS 3 Xrotation Yrotation Zrotation
								End Site
								{
									OFFSET 0.000000 14.885353 0.000000
								}
							}
						}
					}
				}
				JOINT RightShoulder
				{
					OFFSET -6.197800 13.665199 -4.064700
					CHANNELS 3 Xrotation Yrotation Zrotation
					JOINT RightArm
					{
						OFFSET -7.778100 -0.187103 -1.709300
						CHANNELS 3 Xrotation Yrotation Zrotation
						JOINT RightForeArm
						{
							OFFSET -22.049376 0.000000 0.000000
							CHANNELS 3 Xrotation Yrotation Zrotation
							JOINT RightHand
							{
								OFFSET -23.009392 0.000000 0.000000
								CHANNELS 3 Xrotation Yrotation Zrotation
								JOINT RightHandThumb1
								{
									OFFSET -3.507191 -2.063065 3.133727
									CHANNELS 3 Xrotation Yrotation Zrotation
									JOINT RightHandThumb2
									{
										OFFSET -3.101337 -1.790558 1.790558
										CHANNELS 3 Xrotation Yrotation Zrotation
										JOINT RightHandThumb3
										{
											OFFSET -3.058640 -1.765907 1.765906
											CHANNELS 3 Xrotation Yrotation Zrotation
											End Site
											{
												OFFSET 0.415260 3.926476 -0.049563
											}
										}
									}
								}
								JOINT RightHandIndex1
								{
									OFFSET -11.334419 -0.901459 3.706815
									CHANNELS 3 Xrotation Yrotation Zrotation
									JOINT RightHandIndex2
									{
										OFFSET -3.283112 0.000000 0.000000
										CHANNELS 3 Xrotation Yrotation Zrotation
										JOINT RightHandIndex3
										{
											OFFSET -3.323853 0.000000 0.000000
											CHANNELS 3 Xrotation Yrotation Zrotation
											End Site
											{
												OFFSET 1.135597 3.097809 0.402452
											}
										}
									}
								}
								JOINT RightHandMiddle1
								{
									OFFSET -11.335861 0.000000 0.000000
									CHANNELS 3 Xrotation Yrotation Zrotation
									JOINT RightHandMiddle2
									{
										OFFSET -3.410492 0.000000 0.000000
										CHANNELS 3 Xrotation Yrotation Zrotation
										JOINT RightHandMiddle3
										{
											OFFSET -3.312172 0.000000 0.000000
											CHANNELS 3 Xrotation Yrotation Zrotation
											End Site
											{
												OFFSET 1.150200 3.080154 0.400270
											}
										}
									}
								}
								JOINT RightHandRing1
								{
									OFFSET -11.514786 -0.013176 -3.003090
									CHANNELS 3 Xrotation Yrotation Zrotation
									JOINT RightHandRing2
									{
										OFFSET -3.053307 0.000000 0.000000
										CHANNELS 3 Xrotation Yrotation Zrotation
										JOINT RightHandRing3
										{
											OFFSET -3.295807 0.000000 0.000000
											CHANNELS 3 Xrotation Yrotation Zrotation
											End Site
											{
												OFFSET 1.281006 3.013344 0.375733
											}
										}
									}
								}
								JOINT RightHandPinky1
								{
									OFFSET -10.518692 -0.960396 -5.730441
									CHANNELS 3 Xrotation Yrotation Zrotation
									JOINT RightHandPinky2
									{
										OFFSET -2.861649 0.000000 0.000000
										CHANNELS 3 Xrotation Yrotation Zrotation
										JOINT RightHandPinky3
										{
											OFFSET -2.863380 0.000000 0.000000
											CHANNELS 3 Xrotation Yrotation Zrotation
											End Site
											{
												OFFSET 0.843597 2.711159 0.369971
											}
										}
									}
								}
							}
							JOINT RSleeve
							{
								OFFSET -6.676277 -0.344902 -1.011730
								CHANNELS 3 Xrotation Yrotation Zrotation
								End Site
								{
									OFFSET 0.000000 14.885353 0.000000
								}
							}
						}
					}
				}
				JOINT Backpack
				{
					OFFSET 0.000000 -2.471497 36.677502
					CHANNELS 3 Xrotation Yrotation Zrotation
					End Site
					{
						OFFSET 0.000000 20.427315 0.000000
					}
				}
				JOINT Hood
				{
					OFFSET 0.000000 18.754097 -10.431000
					CHANNELS 3 Xrotation Yrotation Zrotation
					JOINT Hood1
					{
						OFFSET 0.000000 -5.011002 -7.685901
						CHANNELS 3 Xrotation Yrotation Zrotation
						End Site
						{
							OFFSET 0.000000 9.175140 0.000000
						}
					}
				}
				JOINT LHoodieString
				{
					OFFSET 5.250500 16.397697 3.089900
					CHANNELS 3 Xrotation Yrotation Zrotation
					JOINT LHoodieString1
					{
						OFFSET 0.257700 -6.364304 3.694600
						CHANNELS 3 Xrotation Yrotation Zrotation
						JOINT LHoodieString2
						{
							OFFSET 0.000000 -9.643799 2.679100
							CHANNELS 3 Xrotation Yrotation Zrotation
							End Site
							{
								OFFSET 0.000000 10.009018 0.000000
							}
						}
					}
				}
				JOINT RHoodieString
				{
					OFFSET -5.250500 16.397697 3.089900
					CHANNELS 3 Xrotation Yrotation Zrotation
					JOINT RHoodieString1
					{
						OFFSET -0.257700 -6.364304 3.694600
						CHANNELS 3 Xrotation Yrotation Zrotation
						JOINT RHoodieString2
						{
							OFFSET 0.000000 -9.643799 2.679100
							CHANNELS 3 Xrotation Yrotation Zrotation
							End Site
							{
								OFFSET 0.000000 10.009018 0.000000
							}
						}
					}
				}
			}
			JOINT LBackpack_Strap
			{
				OFFSET 15.223200 -7.719803 -6.610900
				CHANNELS 3 Xrotation Yrotation Zrotation
				End Site
				{
					OFFSET 0.000000 16.040596 0.000000
				}
			}
			JOINT RBackpack_Strap
			{
				OFFSET -15.223000 -7.719803 -6.610900
				CHANNELS 3 Xrotation Yrotation Zrotation
				End Site
				{
					OFFSET 0.000000 16.040596 0.000000
				}
			}
		}
	}
	JOINT BoyFacialAnim_Joint
	{
		OFFSET 1.000000 -82.208099 -1.550900
		CHANNELS 3 Xrotation Yrotation Zrotation
		End Site
		{
			OFFSET 0.000000 30.012791 0.000000
		}
	}
}
MOTION
Frames: 5
Frame Time: 0.033333
-1.921806 82.554512 -1.859332 -1.348299 3.442255 -1.267433 -0.000000 -0.000000 0.000000 -11.860272 14.109331 7.878907 1.982523 -4.363448 4.298456 9.722026 -0.984614 -8.851075 -0.000000 -0.000001 0.000000 -0.000000 -0.000001 0.000000 0.000001 -0.000002 -0.000001 -3.019916 -9.670545 4.843215 7.312039 -10.176184 -6.062793 -3.007176 -11.012773 2.420113 0.000000 0.000000 -0.000000 0.000000 0.000000 -0.000000 -0.000000 0.000001 -0.000000 3.719977 1.783993 2.304959 1.772997 0.791075 1.756867 1.746787 0.819190 1.765111 9.584796 -1.380369 -2.439257 -5.167637 -3.186633 -9.963748 0.000000 0.000001 0.000000 0.000000 0.000001 0.000000 0.000000 0.000001 0.000000 0.913108 -17.625397 -13.167715 1.267918 -17.254110 -69.543477 -0.000007 -1.186882 -0.000001 -33.146710 -2.427093 -5.526397 -1.175927 1.650355 4.933028 11.961667 25.468469 16.706192 -0.000002 0.000000 -0.000001 -0.004358 -1.050666 -7.442528 0.266978 1.750031 -17.346413 -0.000001 0.000001 -0.000003 -0.122372 2.478308 -15.468195 0.268413 1.754625 -17.393430 0.000002 -0.000001 -0.000002 0.110387 3.562166 -20.900148 0.381773 2.082066 -20.778895 0.000000 -0.000000 -0.000000 0.850222 5.450558 -26.966149 0.267802 1.752678 -17.373460 -0.000000 -0.000000 0.000005 0.000000 0.000000 0.000000 1.169534 15.068202 14.890378 14.333618 19.153003 59.034705 0.000003 2.965741 0.000010 -15.859972 -4.826013 8.324953 -0.967640 -1.823585 -4.894299 12.295018 -29.687902 -17.330519 -0.000000 0.000005 0.000003 -0.334228 2.446010 7.176712 0.217923 -1.409354 17.578663 -0.000004 0.000000 0.000004 -0.138822 -1.805655 11.325552 0.222442 -1.423559 17.761576 0.000002 0.000000 -0.000000 0.868175 -5.655075 16.935217 0.295864 -1.635073 20.512352 0.000000 -0.000000 0.000000 0.467809 -4.409220 23.192143 0.166072 -1.233880 15.331082 0.000000 0.000001 -0.000001 -0.000000 -0.000000 -0.000000 0.000000 0.000000 -0.000000 0.000000 0.000000 -0.000000 0.000000 0.000000 -0.000000 0.000000 0.000000 -0.000000 0.000000 0.000000 -0.000000 0.000001 0.000001 0.000000 0.000000 0.000000 -0.000000 0.000000 0.000000 -0.000000 0.000001 0.000001 0.000000 0.000000 0.000000 0.000000 0.000000 0.000000 0.000000 -0.000000 -0.000000 0.000000 
-1.884876 82.512421 -2.007721 -1.506974 2.118730 -1.381115 -0.000000 -0.000000 -0.000000 -11.655264 14.145183 8.152269 2.242870 -4.096596 4.295736 9.423839 0.029208 -8.933954 0.000000 -0.000000 0.000000 0.000000 -0.000000 0.000000 0.000000 -0.000002 -0.000001 -3.490850 -9.770339 4.510428 8.180675 -10.160388 -5.527571 -3.278362 -9.689996 2.213617 0.000000 0.000000 -0.000000 0.000000 0.000000 -0.000000 -0.000000 -0.000000 -0.000000 3.730099 1.764324 2.266402 1.789323 0.759271 1.725567 1.763185 0.787188 1.733496 9.350997 -1.128866 -2.379136 -5.382531 -1.998193 -9.549196 -0.000000 -0.000000 0.000001 -0.000000 -0.000000 0.000001 -0.000000 -0.000000 0.000001 0.923557 -17.694408 -13.109436 1.332270 -17.370838 -69.502851 0.000011 -1.252324 -0.000008 -33.132168 -2.290458 -5.597214 -1.310024 1.573590 4.991823 11.981260 25.477557 16.641392 -0.000000 -0.000001 0.000003 -0.012621 -1.093834 -7.451975 0.266970 1.750010 -17.346203 -0.000001 -0.000000 -0.000002 -0.128250 2.459942 -15.498809 0.268395 1.754566 -17.392817 0.000001 -0.000001 0.000002 0.111036 3.564591 -20.915687 0.382264 2.083364 -20.792438 -0.000001 0.000000 -0.000006 0.838943 5.428331 -26.964079 0.267904 1.753013 -17.376877 0.000000 0.000000 0.000001 0.000004 -0.000000 -0.000000 1.196588 15.347517 14.739067 12.760496 19.126965 59.241345 -0.000007 3.121475 0.000008 -15.750720 -4.109277 6.013740 -1.238402 -1.704457 -4.749363 12.272597 -29.677421 -17.384925 0.000003 0.000002 0.000003 -0.332123 2.246702 7.704756 0.218002 -1.409620 17.582017 -0.000002 0.000000 0.000005 -0.141352 -1.921015 12.386258 0.222314 -1.423096 17.755866 0.000002 -0.000001 -0.000000 0.830280 -5.439963 17.776064 0.298673 -1.642543 20.610388 -0.000004 -0.000001 0.000000 0.505614 -4.476223 24.163300 0.166846 -1.236648 15.366455 -0.000003 0.000001 0.000000 0.000003 0.000000 0.000000 -0.000000 0.000000 0.000000 -0.000000 0.000000 0.000000 -0.000000 0.000000 0.000000 -0.000000 0.000000 0.000000 -0.000000 0.000000 -0.000000 0.000000 0.000000 -0.000000 -0.000000 0.000000 0.000000 -0.000000 0.000000 -0.000000 0.000000 0.000000 -0.000000 0.000000 0.000000 0.000000 0.000000 0.000000 0.000000 -0.000000 -0.000000 -0.000000 
-1.847079 82.488327 -2.127225 -1.685920 0.895049 -1.497285 -0.000000 0.000000 -0.000000 -11.379938 14.187214 8.461126 2.347725 -3.072047 4.237420 9.179385 0.186708 -8.914646 -0.000000 -0.000000 0.000000 -0.000000 -0.000000 -0.000000 0.000001 -0.000000 0.000000 -3.806128 -9.876986 4.225518 8.907611 -10.175988 -5.023420 -3.699592 -8.404432 1.989419 -0.000000 -0.000002 -0.000000 -0.000000 -0.000002 -0.000000 -0.000000 -0.000001 -0.000000 3.729248 1.742178 2.239332 1.787260 0.721822 1.696707 1.761197 0.749433 1.704265 9.163807 -0.904700 -2.289287 -5.607322 -0.952236 -9.079458 0.000001 0.000000 -0.000001 0.000001 0.000000 -0.000001 0.000001 0.000000 -0.000001 0.930221 -17.801927 -13.076871 1.542745 -17.437321 -69.360373 0.000005 -1.523832 -0.000022 -33.409440 -2.264535 -5.723350 -1.405399 1.441811 4.988997 12.006760 25.489093 16.557195 -0.000000 -0.000002 0.000001 -0.014499 -1.127929 -7.379247 0.266989 1.750070 -17.346811 0.000000 -0.000000 -0.000004 -0.134966 2.430209 -15.446539 0.268376 1.754503 -17.392202 0.000000 -0.000001 -0.000002 0.103323 3.541982 -20.865466 0.382675 2.084436 -20.803662 -0.000000 -0.000001 -0.000001 0.821790 5.396975 -26.901976 0.268361 1.754456 -17.391671 -0.000000 0.000001 0.000002 -0.000000 -0.000001 -0.000001 1.220396 15.499955 14.609711 11.261985 19.150619 59.540309 -0.000003 3.628264 0.000003 -16.808095 -2.953291 4.422533 -1.479207 -1.425132 -4.592809 12.297707 -29.687523 -17.301959 0.000000 -0.000000 -0.000000 -0.336039 2.152618 8.013064 0.218037 -1.409712 17.583306 0.000001 0.000000 0.000002 -0.145594 -1.991052 13.193110 0.222208 -1.422802 17.752053 0.000002 -0.000001 0.000003 0.755739 -5.153445 18.439023 0.303044 -1.654100 20.762250 -0.000000 0.000000 -0.000001 0.544353 -4.552974 24.910649 0.167015 -1.237298 15.374752 -0.000000 -0.000001 0.000004 -0.000000 -0.000000 0.000000 -0.000000 -0.000000 -0.000000 -0.000000 -0.000000 -0.000000 -0.000000 -0.000000 -0.000000 -0.000000 -0.000000 -0.000000 -0.000000 -0.000000 -0.000000 -0.000000 0.000000 -0.000001 -0.000000 -0.000000 -0.000000 -0.000000 -0.000000 -0.000000 -0.000000 0.000000 -0.000001 0.000000 0.000000 0.000000 0.000000 0.000000 0.000000 -0.000000 0.000000 -0.000000 
-1.808866 82.482925 -2.214478 -1.869472 -0.206103 -1.612568 -0.000000 0.000000 -0.000000 -11.066864 14.276969 8.746032 2.373917 -2.077753 4.173554 8.984172 0.207773 -8.895223 0.000000 -0.000001 0.000000 0.000000 -0.000001 0.000000 -0.000000 -0.000001 0.000000 -3.901489 -9.974243 4.002107 9.261865 -10.192474 -4.581475 -3.919681 -7.202562 1.784404 -0.000000 0.000000 0.000000 -0.000000 0.000000 0.000000 0.000000 -0.000001 0.000000 3.713505 1.712886 2.219244 1.762723 0.671661 1.667843 1.736786 0.699062 1.674844 9.010654 -0.708237 -2.162205 -5.782045 -0.055155 -8.551714 0.000000 0.000000 -0.000001 0.000000 0.000000 -0.000001 0.000000 0.000000 -0.000001 0.937115 -17.931497 -13.044697 1.827193 -17.453517 -69.166457 -0.000004 -1.870451 0.000004 -33.771362 -2.321830 -5.826520 -1.472409 1.391278 5.012466 12.020718 25.495877 16.511045 0.000002 -0.000000 -0.000001 -0.011970 -1.149149 -7.283527 0.267019 1.750186 -17.347963 -0.000000 -0.000001 -0.000004 -0.137011 2.412659 -15.347978 0.268355 1.754440 -17.391550 -0.000000 -0.000001 0.000002 0.095990 3.517335 -20.754578 0.382454 2.083862 -20.797646 0.000001 -0.000001 -0.000000 0.809773 5.376673 -26.835724 0.268045 1.753449 -17.381361 -0.000000 0.000001 -0.000000 -0.000001 -0.000000 0.000001 1.232474 15.535291 14.538968 9.988540 19.407503 59.796073 -0.000001 4.390898 0.000003 -18.727224 -1.586375 3.722091 -1.579302 -1.064865 -4.306331 12.285189 -29.684733 -17.333367 -0.000003 0.000001 0.000000 -0.330442 1.977378 8.484518 0.218001 -1.409604 17.581805 -0.000002 0.000000 0.000002 -0.152546 -2.054488 14.082059 0.222564 -1.423902 17.766174 0.000002 -0.000000 -0.000000 0.695359 -4.924117 19.194194 0.306897 -1.664248 20.895473 0.000002 0.000000 0.000000 0.581847 -4.626224 25.704818 0.169432 -1.246034 15.486032 0.000002 -0.000002 -0.000002 0.000001 -0.000000 0.000000 -0.000000 0.000000 -0.000000 -0.000000 0.000000 -0.000000 -0.000000 0.000000 -0.000000 -0.000000 0.000000 -0.000000 -0.000000 0.000000 -0.000000 -0.000000 0.000000 0.000000 -0.000000 0.000000 -0.000000 -0.000000 0.000000 -0.000000 -0.000000 0.000000 0.000000 0.000000 -0.000000 -0.000000 0.000000 -0.000000 -0.000000 -0.000000 0.000000 -0.000000 
-1.770047 82.492180 -2.275031 -2.033750 -1.176259 -1.729749 0.000000 0.000000 -0.000000 -10.911779 14.353480 9.014649 2.655741 -1.213889 4.117951 8.684948 0.227217 -8.753691 0.000000 -0.000000 -0.000000 0.000000 -0.000000 0.000000 -0.000001 0.000001 0.000000 -3.844795 -10.047051 3.856849 9.317973 -10.206811 -4.234655 -3.976965 -6.138465 1.615170 -0.000000 -0.000001 -0.000000 -0.000000 -0.000001 -0.000000 0.000000 0.000001 -0.000000 3.685013 1.679497 2.205099 1.721944 0.614517 1.641999 1.696166 0.641819 1.648304 8.849439 -0.535658 -2.002191 -5.869996 0.703636 -7.975413 0.000000 0.000000 -0.000000 0.000000 0.000000 -0.000000 0.000000 0.000000 -0.000000 0.945321 -18.002647 -13.001084 2.084710 -17.518810 -68.949687 -0.000009 -2.154075 -0.000007 -34.004787 -2.406516 -5.811802 -1.451039 1.385565 4.992075 12.020275 25.498700 16.511701 -0.000001 0.000001 0.000003 -0.011115 -1.146825 -7.281070 0.267082 1.750369 -17.349850 -0.000001 -0.000000 -0.000000 -0.132428 2.429179 -15.344759 0.268336 1.754378 -17.390920 0.000002 -0.000001 -0.000000 0.095517 3.515772 -20.748061 0.382826 2.084839 -20.807869 -0.000001 -0.000000 -0.000000 0.813251 5.386189 -26.855870 0.268347 1.754415 -17.391250 -0.000000 0.000000 0.000003 0.000000 0.000000 -0.000001 1.241715 15.520874 14.501101 9.065095 20.041930 59.928264 0.000002 5.333807 -0.000018 -20.809693 -0.207573 3.428583 -1.559765 -0.599982 -3.908998 12.234552 -29.669109 -17.480097 -0.000000 0.000001 -0.000001 -0.328279 1.804785 9.008494 0.217747 -1.408778 17.571177 -0.000001 0.000001 0.000004 -0.135396 -2.210856 15.030168 0.223264 -1.426111 17.794647 0.000004 0.000000 -0.000000 0.648596 -4.750855 19.978421 0.310552 -1.673778 21.020831 0.000001 0.000000 -0.000001 0.615560 -4.687887 26.488809 0.172663 -1.257628 15.633823 -0.000001 -0.000002 -0.000000 0.000004 0.000000 -0.000000 -0.000000 0.000000 0.000000 -0.000000 0.000000 0.000000 -0.000000 0.000000 0.000000 -0.000000 0.000000 0.000000 -0.000000 0.000000 -0.000000 -0.000000 0.000000 -0.000000 -0.000000 0.000000 0.000000 -0.000000 0.000000 -0.000000 -0.000000 0.000000 -0.000000 -0.000000 0.000000 0.000000 -0.000000 0.000000 0.000000 0.000000 0.000000 -0.000000 
